<?xml version="1.0" standalone="no"?>
<!DOCTYPE svg PUBLIC "-//W3C//DTD SVG 20010904//EN"
 "http://www.w3.org/TR/2001/REC-SVG-20010904/DTD/svg10.dtd">
<svg version="1.0" xmlns="http://www.w3.org/2000/svg"
 width="200.000000pt" height="200.000000pt" viewBox="0 0 200.000000 200.000000"
 preserveAspectRatio="xMidYMid meet">
<metadata>
Created by potrace 1.14, written by Peter Selinger 2001-2017
</metadata>
<g transform="translate(0.000000,200.000000) scale(0.100000,-0.100000)"
fill="#000000" stroke="none">
<path d="M59 1941 l-29 -29 0 -912 0 -912 29 -29 29 -29 912 0 912 0 29 31 29
31 0 898 c0 548 -4 909 -10 924 -22 58 13 56 -970 56 l-902 0 -29 -29z m449
-741 c16 -17 49 -112 84 -238 17 -61 38 -36 79 93 21 66 44 128 51 137 22 29
72 34 97 9 21 -21 21 -29 19 -204 l-3 -182 -40 0 -40 0 -3 118 c-2 94 -5 117
-17 117 -8 0 -17 -12 -21 -27 -13 -61 -55 -187 -65 -199 -18 -22 -57 -17 -73
9 -7 12 -26 68 -42 125 -15 57 -33 101 -38 99 -7 -2 -13 -53 -16 -123 l-5
-119 -40 0 -40 0 -3 174 c-3 210 1 220 85 230 7 0 21 -8 31 -19z m502 -81 c0
-103 9 -110 48 -38 14 24 37 62 51 84 25 37 30 40 79 43 30 2 52 -1 52 -7 0
-6 -27 -50 -60 -98 -33 -48 -60 -90 -60 -93 0 -3 29 -46 65 -95 36 -49 65 -93
65 -98 0 -4 -23 -7 -52 -5 l-51 3 -56 82 c-31 45 -60 82 -66 83 -6 0 -12 -37
-15 -82 l-5 -83 -40 0 -40 0 -3 198 -2 197 45 0 45 0 0 -91z m548 49 l-3 -43
-68 -5 c-85 -6 -97 -19 -97 -106 0 -86 15 -103 100 -106 l65 -3 0 -45 0 -45
-80 -3 c-95 -3 -139 14 -170 68 -28 49 -28 221 1 265 33 51 69 65 167 65 l88
0 -3 -42z"/>
</g>
</svg>
